<?xml version="1.0"?><svg version="1.2" baseProfile="tiny-ps" viewBox="0 0 300 300" xmlns="http://www.w3.org/2000/svg" xmlns:xlink="http://www.w3.org/1999/xlink"><title>anphashop</title><g><g fill="#f8fcfc" transform="matrix(.1 0 0 -.1 0 300)"><path d="M0 1500V0h3000v3000H0V1500z"/></g><g fill="#83e2e5" transform="matrix(.1 0 0 -.1 0 300)"><path d="M0 1500V0h3000v3000H0V1500zm1702 793 27-8-21-33-21-33-56 8c-31 4-103 8-161 7l-105-1-80-23c-160-45-299-135-402-259l-54-66-35-73c-19-40-44-107-55-150l-21-77-5-133-6-133-9 9-10 10-5 104-6 105-23-5-24-4v28c0 16 7 60 15 97l14 68 44 92 44 92 61 77 62 78 76 60c110 87 238 146 372 170l47 9 155-4c85-2 167-7 182-12z"/></g><g fill="#1be3e6" transform="matrix(.1 0 0 -.1 0 300)"><path d="M0 1500V0h3000v3000H0V1500zm1678 799 54-11 15 19c8 10 0-9-17-42-59-107-485-755-498-755-5 0 14 30 232 365l214 330-16 10-17 10-126 3-127 4-83-21-84-21-94-46-95-47-87-86-86-86-42-75-41-75-25-80-25-80-12-150c-7-82-12-201-13-262 0-62-1-113-2-113-7 0-65 201-74 260l-12 75 6 106 5 106 26 77c50 148 118 256 230 366l66 64 67 43c105 66 227 108 358 123l70 8 90-4c50-3 114-9 143-15zm242-905c0-3-14-25-30-50l-31-44h-249c-138 0-250 2-250 5 0 2 12 25 27 50l28 45h252c139 0 253-3 253-6z"/></g><g fill="#117eac" transform="matrix(.1 0 0 -.1 0 300)"><path d="M0 1500V0h3000v3000H0V1500zm1875 823 40-106 142-56c78-31 144-59 148-63l6-6-102-159c-56-87-103-159-104-160-1-2-16 32-35 75-37 87-63 118-105 130l-30 9-32-9-33-8-49-78c-27-42-108-169-179-282l-130-205 254-3c140-1 254-5 254-8s-14-25-30-50l-31-44h-514l-14-22c-8-13-50-81-93-152l-78-128v-97l26-24 26-25 72-22 71-22 130-5 130-5 99 21 100 20 103 51 102 51 51 46 50 45v14c0 8-5 14-10 14h-10l2 53 2 52 47 65 46 65 7 38c9 47 26 87 38 87 5 0 18 21 29 48l20 47-2 55-3 55 23 100c13 55 26 107 28 115l6 15 8-35c5-19 16-93 25-163l16-129-16-122-16-122-25-90c-62-216-177-389-330-499-115-82-205-116-364-135l-79-10-93 10c-51 6-130 20-174 31l-80 20-90 44c-49 24-99 50-109 58l-19 14 86-28c48-16 124-36 170-46l82-18 145 1h145l62 17c78 21 138 45 130 53-3 4-52 16-109 27l-103 21-426 5-425 6 80 128c183 289 359 563 595 927l249 385-16 10-17 10-126 3-127 4-83-21-84-21-95-47-95-46-90-91-90-91-42-80-42-80-20-75-21-75-16-210-15-210 6-48c3-26 4-47 1-47-10 0-66 190-77 260l-12 75 6 106 5 106 26 77c50 148 110 245 223 359l68 68 71 45c121 75 248 115 409 129l70 6 90-10c50-6 104-13 120-16l30-6 45 70c25 39 47 71 50 71s23-48 45-107z"/></g><g fill="#5b594a" transform="matrix(.1 0 0 -.1 0 300)"><path d="M0 1500V0h3000v3000H0V1500zm1875 833 40-107 25-13c14-7 81-34 150-60s126-48 128-49-45-77-103-168l-107-166-8 5c-4 3-20 35-35 72-15 38-36 78-48 91l-21 22-37 11-36 11-28-13c-16-8-33-23-39-34s-20-33-30-50l-19-30 31 31 31 30 36 11 37 12 14-6c28-11 12-24-83-71l-97-48-128-199c-70-110-127-203-128-207v-8h250c138 0 250-3 250-6s-14-25-30-50l-31-44h-507l-80-127-81-128 11-13c17-20 127-78 188-98l55-18h180l60 22 60 22 66 45 65 44 70 73 71 73 70 105c86 129 143 232 182 330l30 75 17 93 18 92 7-7c4-5 14-42 24-83l16-74 6-118 6-117-12-93c-7-51-24-136-37-188l-25-95-49-100-49-100-52-69-52-69-75-59c-90-71-165-110-269-140l-78-22h-280l-55 13c-145 34-263 84-369 155l-53 36h-94c-52 0-94 2-94 4s16 28 35 57c19 30 35 57 35 61s-15 29-34 56c-67 93-138 270-157 394l-12 73 6 115 5 115 26 78c50 149 110 246 223 360l68 68 71 45c121 75 248 115 409 129l70 6 95-11c52-5 105-13 117-16l22-6 48 75c26 42 50 76 53 76 3 1 23-47 45-106zm-545-118c-84-19-161-50-232-93-32-19-58-36-58-38 0-1 24 0 53 2 28 3 68 7 87 8 19 2 70 9 112 15 64 10 105 10 138 1 3 0-29-11-70-23l-75-23-67-37-67-37-56-52c-71-65-134-146-172-223-40-80-51-116-62-205l-10-75 10-74 11-75 22-60c13-34 33-76 44-95l20-34 38 59c49 76 327 506 482 746 67 103 122 192 122 198v10h-90v9c0 5 12 11 27 14l28 5 18-10 19-10 20 19c11 10 26 30 34 45l14 27-12 7c-6 4-68 9-137 11l-126 3-65-15zm143-102c-7-2-19-2-25 0l-13 5h50l-12-5zM855 1100c10-11 20-20 23-20s-3 9-13 20-20 20-23 20 3-9 13-20zm42-51c7-7 15-10 18-7s-2 9-12 12l-18 7 12-12zm271-80c-5-79 33-118 132-134l45-7-35 26c-19 15-59 52-87 83l-53 56-2-24zm-138-241c25-11 81-28 125-39s88-22 98-25l17-5v21h-19c-10 0-29 9-42 19l-24 20 20 15 20 15H985l45-21z"/></g><g fill="#37383a" transform="matrix(.1 0 0 -.1 0 300)"><path d="M0 1500V0h3000v3000H0V1500zm1869 860c17-43 31-85 31-92s7-21 14-31l14-18 118-45c66-25 131-50 147-56 34-13 34-19-2-71-35-51-71-115-71-125 0-4 5 1 11 11l11 19 24-36c13-19 24-40 24-46s11-28 25-48 25-44 25-53 7-34 16-54l16-38-12-25c-6-14-9-27-6-29 8-9 47 112 61 190 8 43 16 82 19 84 6 6 6 6 33-82l18-60v-410l-29-110-28-110-48-100-48-101-46-61c-97-128-232-229-378-280l-73-26h-360l-55 16c-138 39-224 77-318 140l-52 36-100 3-100 3v11c0 6 11 27 24 47 14 20 30 45 36 56l10 20-36 48c-49 64-98 167-136 288l-32 100v145l-1 145 18 60c55 182 154 335 290 450 109 93 206 141 357 177l55 13h140c77 0 166-4 197-8l57-8 47 70c26 39 50 71 55 71 4 0 21-36 38-80zm-469-136c-14-2-50-9-82-14-69-13-158-48-226-91-29-18-52-33-52-35 0-1 19-1 43 2 23 2 58 5 77 5 19 1 51 5 72 10 20 5 70 11 112 14l75 4 6-9 6-10h59v25l10-15 10-15v33l27 5 28 5 18-10 19-10 20 19c11 10 26 30 34 44l13 27-22 6c-29 8-215 16-247 10zm73-111c-7-2-19-2-25 0l-13 5h50l-12-5zm318-145c-13-7-29-22-35-33s-20-33-30-50l-19-30 31 31 31 30 36 11 37 12 14-6 15-6-5-12-4-13 29 11c16 6 29 15 29 19 0 12-44 37-76 43l-29 6-24-13zm-936-868c10-11 20-20 23-20s-3 9-13 20-20 20-23 20 3-9 13-20zm42-51c7-7 15-10 18-7s-2 9-12 12l-18 7 12-12zm271-80c-5-79 33-118 132-134l45-7-35 26c-19 15-59 52-87 83l-53 56-2-24zm-138-241c25-11 81-28 125-39s88-22 98-25l17-5v21h-19c-10 0-29 9-42 19l-24 20 20 15 20 15H985l45-21z"/></g></g></svg>